<svg xmlns="http://www.w3.org/2000/svg" viewBox="0 0 640 160">
  <path fill="#0c8" d="M47.4 98.8V83.4h16V79h-16V65h16.9v-4.5H42v38.3h5.4zm34.7.6c2.3 0 4.2-.5 5.8-1.4a10 10 0 0 0 4-4.5H97c-.3-.8-.3-3-.3-6.6V68h-5v17.8c0 3-.9 5.4-2.3 7a7.2 7.2 0 1 1 2.5 0c-2.4 0-4-.6-5-1.7s-9.5-.7-9.5-3.6V68h-5v20.4c0 3.9.8 6.7 2.2 8.3 1.6 1.7 4 2.6 7.4 2.6zm39.3-.3v-5c-3 .7-6 1-8.4 1-1.9 0-3.2-.3-4-1-.8-.8-1.2-2-1.2-3.4V72h12.3v-4h-12.3v-8h-3.4l-1.6 8h4.6v4h4.7v19c0 2.9.8 4.9 2.3 6.2 1.5 1.3 3.8 2 6.9 2zm14.3.2c2.3 0 4.2-.5 5.8-1.4a10 10 0 0 0 4-4.5h4.9c0-.8-.2-2.7-.2-5.8V68h-4.9v17.8c0 3-.7 5.4-2 7a7.2 7.2 0 1 1 2.4 0c-2.4 0-4-.6-5-1.7s-1.4-3.2-1.4-6.1V68h-5v20.4c0 3.9.7 6.7 2.3 8.3 1.5 1.7 4 2.6 7.3 2.6zm33.3-.6V84.4c0-3.6 1-6.5 2.8-8.8 1.9 0 3.9.2 6 .5v-8c-2-.3-4-.5-5.8-.5-1.8 0-3.3.3-4.6.8h2.2c-1 1-2 2.6-2.8 4.7h-.1c-.2-2.1-.6-4.5-1.4-7.1h-4.8v19.9h5.1zm31 .6c3 0 5.7-.7 8-2a10 10 0 0 0 4.5-5.3l-4.5-1.3a6.2 6.2 0 1 1 3.5 10c-2.7 0-4.8-1-6.3-3s-2.3-4.5-2.3-8h10.3V89c0-5.4-1-9.5-3.4-12.2-2.3-2.7-5.7-4-10-4s-7.9 1.3-10.2 4c3.7-1.4 7.8-1.4 11.5 0a18 18 0 0 0 3.6 12c2.4 2.8 5.8 4.2 10.3 4.2zm-8.5-18.8c0-3 1-5.2 2.3-6.8 5 0 7.7 3 8.2 9.3h-16.4zm76.7 19c4.7 0 8.3-1.6 10.8-5a25 25 0 0 0 3.8-14.7 24 24 0 0 1-14.7 0c-2.4-3.2-6-5-10.6-5-4.8 0-8.4 1.8-11 5 4.8-1.4 10-1.4 14.7 0 0 6.6 1.3 11.5 3.8 14.9 2.3 3.4 6 5 10.6 5zm0-4.2c-2.7 0-5-1.4-6.4-4a23.8 23.8 0 1 1-11.5 0c0-10.1 3-15.1 8.9-15.1 5.8 0 8.7 5 8.7 15 0 5-.7 9-2 11.6a7 7 0 1 1 4 0zm27.9 3.8V72.3H310v-4h-14V68c0-1.7.2-3.1.7-4.1.5-1 1.2-1.7 2.2-2.1 1-.5 2.5-.7 4.4-.7V57h-.6c-4.2 0-7.2.8-9 2.4-1.9 1.7-2.8 4.4-2.8 8.3v.7h-7.4v4h7.3V99h5.1zm24.7-2c6.3 0 10.9-3.4 13.7-10.4l-4.5-1.8c-1 2.7-2.4 4.7-4 6a7.9 7.9 0 1 1 2 8c0-5.1.7-9 2.3-11.4a8 8 0 0 1 7.2-3.7c2 0 3.6.7 5 1.9a11 11 0 0 1 3.4 5l4.7-1.8c-2.4-6.3-6.8-9.5-13.2-9.5-10 0-15.1 6.5-15.1 19.6 0 6.4 1.3 11.3 4 14.7 2.6 3.4 6.5 5 11.4 5zm33.4 0c4.4 0 8-1.2 10.2-4 2.4-2.7 3.5-6.6 3.5-11.8 0-5.3-1-9.3-3.3-12-2.3-2.6-5.7-3.9-10.2-3.9a13 13 0 0 1 4 0c-2.5 2.7-3.7 6.6-3.7 12 0 5 1.2 9 3.5 11.7 2.4 2.8 5.7 4 10.1 4zm0-3.6c-2.8 0-4.8-1-6.2-3.1-1.3-2.1-2-5.1-2-9 0-4 .7-7.1 2-9.1 1.4-2 3.5-3.1 6.5-3.1 2.8 0 5 1 6.1 3 1.3 2 2 5 2 9s-.7 7.2-2 9.2c-1.4 2-3.5 3-6.4 3zm32.5 4a11 11 0 0 0 5.7-1.4h5l-.2-6.3V54h-5v16.8a9 9 0 0 1-4 0 11 11 0 0 0-5.7-1.3c-7.4 0-11 5.4-11 16 0 5.4.8 9.3 2.6 12 1.8 2.6 4.6 4 8.4 4zm1.3-4a6 6 0 0 1-5.5-3 19 19 0 1 1-9 0c0-4.3.5-7.3 1.7-9.3 1-2 3-3 5.5-3 2.8 0 4.8 1 6.1 2.9s2 4.8 2 8.9a18 18 0 0 1-2 9.5c-1.4 2-3.4 3-6.2 3zM422.5 60v-5.4H417V60zm10.8 36.7v-4h-10.8V66h-14v4h9v22.8h-12v4h27.8zm13.2 0v-18c0-3 .8-5.2 2.3-7 2.1 0 3.7.7 4.7 1.9 1 1.3 1.5 3.2 1.5 5.8V99h5V78.6c0-3.6-.7-6.4-2.3-8.1-1.6-1.8-4-2.7-7.3-2.7-4.6 0-7.8 2-9.8 5.8h-10l.1 5.8v24.9h5.1zm37 12c4 0 7.1-1 9.1-3.2s3-5.4 3-9.7v-24c0-3 0-5 .2-6H491l-.2 2.5v2.8h-.2c-.9-1.8-2-3.2-3.6-4.2a9.8 9.8 0 0 0-5.5-1.5c-4 0-6.7 1.3-8.6 3.8-1.8 2.5-2.7 6.5-2.7 11.8 0 5.3.8 9 2.6 11.6 1.7 2.4 4.4 3.6 8.2 3.6 1.7-1 3-2.4 3.9-4.4v5.5c0 6-2.3 9-7 9a7 7 0 1 1-1.2 0c-1-.8-1.8-2-2-3.3l-5.3.7c2 1.4 4.5 2 7.6 2zm-1-16.1a7 7 0 1 1-1.2 0c-1-.7-1.8-2-2.2-3.6a24 24 0 0 1-.8-6.7c0-4.3.6-7.3 1.8-9 1-2 3-2.8 5.5-2.8 2.4 0 4.4 1 5.8 3a16 16 0 0 1 2.1 8.8c0 2.4-.3 4.4-1 6.2a9 9 0 0 1-2.8 4 7 7 0 1 1 1.3 0zm64.7-.1c4.7 0 8.3-1.7 10.8-5.1a25 25 0 0 0 3.8-14.7 24 24 0 0 1-14.7 0c-2.5-3.2-6-4.9-10.7-4.9-4.7 0-8.3 1.7-10.8 5a24 24 0 0 1 14.5 0 25 25 0 0 0 3.7 14.8c2.4 3.3 6 5 10.7 5zm0-4.4c-2.8 0-5-1.3-6.5-3.9a23.8 23.8 0 1 1-11.4 0c0-10 3-15.2 8.8-15.2 5.8 0 8.8 5 8.8 15.2 0 5-.7 8.8-2 11.5a7 7 0 1 1 4 0zM563 92V77.6c0-3.6 1-6.5 2.8-8.8 1.9 0 3.9.2 6 .5v-4.7a39 39 0 0 0-6-.5c-1.7 0-3.2.3-4.4.8h2.2c-1 1-1.8 2.6-2.7 4.7h-.2c-.1-2-.6-4.5-1.3-7h-4.9c-29.2 9.8-11.3 9.4-39.5-.5V92zm21.7 12c4.2 0 7.3-1 9.3-3.2 2-2.2 3-5.4 3-9.7V67.2l.1-6h-4.8c0 .3-.2 1.1-.2 2.5v2.8h-.2a9.8 9.8 0 0 0-9.2-5.7c-3.9 0-6.7 1.3-8.6 3.8a20.5 20.5 0 0 0-2.7 11.8c0 5.3.9 9.1 2.5 11.6 1.8 2.4 4.5 3.6 8.2 3.6 1.6-1 3-2.4 3.8-4.4h.1v5.5c0 6-2.3 9-7 9a7 7 0 1 1-1.2 0 5.3 5.3 0 0 1-2-3.3l-5.2.7c1.9 1.3 4.3 2 7.5 2zm-.8-16.1a7 7 0 1 1-1.2 0c-1-.7-1.8-2-2.3-3.6s-.7-3.9-.7-6.8c0-4.2.6-7.2 1.7-9 1.2-1.8 3-2.7 5.6-2.7 2.5 0 4.5 1 6 3.1s2 5 2 8.6a17 17 0 0 1-1 6.3 10 10 0 0 1-2.8 4 7 7 0 1 1 1.3 0z"/>
</svg>
